<svg xmlns="http://www.w3.org/2000/svg" xmlns:xlink="http://www.w3.org/1999/xlink" width="2000" zoomAndPan="magnify" viewBox="0 0 1500 374.999991" height="500" preserveAspectRatio="xMidYMid meet" version="1.0"><defs><g/><clipPath id="4036b1565f"><path d="M 752.011719 -562.5 C 318.167969 -562.5 -33.53125 -226.714844 -33.53125 187.5 C -33.53125 601.714844 318.167969 937.5 752.011719 937.5 C 1185.855469 937.5 1537.554688 601.714844 1537.554688 187.5 C 1537.554688 -226.714844 1185.855469 -562.5 752.011719 -562.5 Z M 752.011719 -562.5 " clip-rule="nonzero"/></clipPath></defs><g clip-path="url(#4036b1565f)"><rect x="-150" width="1800" fill="#334eac" y="-37.499999" height="449.999989" fill-opacity="1"/></g><g fill="#ffffff" fill-opacity="1"><g transform="translate(74.731139, 248.994125)"><g><path d="M 16.125 1.53125 C 13.050781 1.53125 10.585938 0.828125 8.734375 -0.578125 C 6.878906 -1.984375 5.757812 -3.867188 5.375 -6.234375 C 4.988281 -8.609375 5.4375 -11.265625 6.71875 -14.203125 L 57.40625 -126.53125 C 59.070312 -130.238281 61.085938 -132.890625 63.453125 -134.484375 C 65.828125 -136.085938 68.546875 -136.890625 71.609375 -136.890625 C 74.554688 -136.890625 77.210938 -136.085938 79.578125 -134.484375 C 81.953125 -132.890625 83.96875 -130.238281 85.625 -126.53125 L 136.515625 -14.203125 C 137.921875 -11.265625 138.429688 -8.578125 138.046875 -6.140625 C 137.660156 -3.710938 136.570312 -1.828125 134.78125 -0.484375 C 132.988281 0.859375 130.625 1.53125 127.6875 1.53125 C 124.09375 1.53125 121.304688 0.671875 119.328125 -1.046875 C 117.347656 -2.773438 115.585938 -5.4375 114.046875 -9.03125 L 101.5625 -38.015625 L 111.9375 -31.296875 L 30.90625 -31.296875 L 41.28125 -38.015625 L 28.984375 -9.03125 C 27.328125 -5.3125 25.601562 -2.617188 23.8125 -0.953125 C 22.019531 0.703125 19.457031 1.53125 16.125 1.53125 Z M 71.234375 -108.671875 L 44.359375 -44.734375 L 39.359375 -50.875 L 103.484375 -50.875 L 98.6875 -44.734375 L 71.609375 -108.671875 Z M 71.234375 -108.671875 "/></g></g></g><g fill="#ffffff" fill-opacity="1"><g transform="translate(239.658882, 248.994125)"><g><path d="M 59.71875 1.53125 C 55.75 1.53125 52.707031 0.410156 50.59375 -1.828125 C 48.476562 -4.066406 47.421875 -7.171875 47.421875 -11.140625 L 47.421875 -114.8125 L 9.984375 -114.8125 C 6.648438 -114.8125 4.054688 -115.738281 2.203125 -117.59375 C 0.347656 -119.457031 -0.578125 -121.988281 -0.578125 -125.1875 C -0.578125 -128.507812 0.347656 -131.035156 2.203125 -132.765625 C 4.054688 -134.492188 6.648438 -135.359375 9.984375 -135.359375 L 109.4375 -135.359375 C 112.769531 -135.359375 115.363281 -134.492188 117.21875 -132.765625 C 119.070312 -131.035156 120 -128.507812 120 -125.1875 C 120 -121.988281 119.070312 -119.457031 117.21875 -117.59375 C 115.363281 -115.738281 112.769531 -114.8125 109.4375 -114.8125 L 72 -114.8125 L 72 -11.140625 C 72 -7.171875 70.972656 -4.066406 68.921875 -1.828125 C 66.878906 0.410156 63.8125 1.53125 59.71875 1.53125 Z M 59.71875 1.53125 "/></g></g></g><g fill="#ffffff" fill-opacity="1"><g transform="translate(398.442659, 248.994125)"><g><path d="M 59.71875 1.53125 C 55.75 1.53125 52.707031 0.410156 50.59375 -1.828125 C 48.476562 -4.066406 47.421875 -7.171875 47.421875 -11.140625 L 47.421875 -114.8125 L 9.984375 -114.8125 C 6.648438 -114.8125 4.054688 -115.738281 2.203125 -117.59375 C 0.347656 -119.457031 -0.578125 -121.988281 -0.578125 -125.1875 C -0.578125 -128.507812 0.347656 -131.035156 2.203125 -132.765625 C 4.054688 -134.492188 6.648438 -135.359375 9.984375 -135.359375 L 109.4375 -135.359375 C 112.769531 -135.359375 115.363281 -134.492188 117.21875 -132.765625 C 119.070312 -131.035156 120 -128.507812 120 -125.1875 C 120 -121.988281 119.070312 -119.457031 117.21875 -117.59375 C 115.363281 -115.738281 112.769531 -114.8125 109.4375 -114.8125 L 72 -114.8125 L 72 -11.140625 C 72 -7.171875 70.972656 -4.066406 68.921875 -1.828125 C 66.878906 0.410156 63.8125 1.53125 59.71875 1.53125 Z M 59.71875 1.53125 "/></g></g></g><g fill="#ffffff" fill-opacity="1"><g transform="translate(554.730421, 248.994125)"><g><path d="M 27.84375 0 C 23.613281 0 20.378906 -1.117188 18.140625 -3.359375 C 15.898438 -5.597656 14.78125 -8.832031 14.78125 -13.0625 L 14.78125 -122.296875 C 14.78125 -126.523438 15.898438 -129.757812 18.140625 -132 C 20.378906 -134.238281 23.613281 -135.359375 27.84375 -135.359375 L 96.390625 -135.359375 C 99.585938 -135.359375 102.050781 -134.523438 103.78125 -132.859375 C 105.507812 -131.203125 106.375 -128.835938 106.375 -125.765625 C 106.375 -122.554688 105.507812 -120.085938 103.78125 -118.359375 C 102.050781 -116.640625 99.585938 -115.78125 96.390625 -115.78125 L 38.40625 -115.78125 L 38.40625 -78.53125 L 92.15625 -78.53125 C 95.488281 -78.53125 97.984375 -77.695312 99.640625 -76.03125 C 101.304688 -74.363281 102.140625 -71.929688 102.140625 -68.734375 C 102.140625 -65.535156 101.304688 -63.101562 99.640625 -61.4375 C 97.984375 -59.769531 95.488281 -58.9375 92.15625 -58.9375 L 38.40625 -58.9375 L 38.40625 -19.578125 L 96.390625 -19.578125 C 99.585938 -19.578125 102.050781 -18.742188 103.78125 -17.078125 C 105.507812 -15.421875 106.375 -12.992188 106.375 -9.796875 C 106.375 -6.585938 105.507812 -4.148438 103.78125 -2.484375 C 102.050781 -0.828125 99.585938 0 96.390625 0 Z M 27.84375 0 "/></g></g></g><g fill="#ffffff" fill-opacity="1"><g transform="translate(706.410222, 248.994125)"><g><path d="M 26.296875 1.53125 C 22.585938 1.53125 19.738281 0.507812 17.75 -1.53125 C 15.769531 -3.582031 14.78125 -6.53125 14.78125 -10.375 L 14.78125 -124.609375 C 14.78125 -128.578125 15.769531 -131.613281 17.75 -133.71875 C 19.738281 -135.832031 22.332031 -136.890625 25.53125 -136.890625 C 28.476562 -136.890625 30.6875 -136.34375 32.15625 -135.25 C 33.632812 -134.164062 35.394531 -132.347656 37.4375 -129.796875 L 110.96875 -34.375 L 105.984375 -34.375 L 105.984375 -125.1875 C 105.984375 -128.894531 106.972656 -131.769531 108.953125 -133.8125 C 110.941406 -135.863281 113.789062 -136.890625 117.5 -136.890625 C 121.21875 -136.890625 124.035156 -135.863281 125.953125 -133.8125 C 127.867188 -131.769531 128.828125 -128.894531 128.828125 -125.1875 L 128.828125 -9.984375 C 128.828125 -6.398438 127.929688 -3.582031 126.140625 -1.53125 C 124.347656 0.507812 121.914062 1.53125 118.84375 1.53125 C 115.90625 1.53125 113.570312 0.957031 111.84375 -0.1875 C 110.113281 -1.34375 108.222656 -3.203125 106.171875 -5.765625 L 32.828125 -101.1875 L 37.625 -101.1875 L 37.625 -10.375 C 37.625 -6.53125 36.664062 -3.582031 34.75 -1.53125 C 32.832031 0.507812 30.015625 1.53125 26.296875 1.53125 Z M 26.296875 1.53125 "/></g></g></g><g fill="#ffffff" fill-opacity="1"><g transform="translate(887.081979, 248.994125)"><g><path d="M 27.84375 0 C 23.613281 0 20.378906 -1.117188 18.140625 -3.359375 C 15.898438 -5.597656 14.78125 -8.832031 14.78125 -13.0625 L 14.78125 -122.296875 C 14.78125 -126.523438 15.898438 -129.757812 18.140625 -132 C 20.378906 -134.238281 23.613281 -135.359375 27.84375 -135.359375 L 65.09375 -135.359375 C 87.75 -135.359375 105.25 -129.535156 117.59375 -117.890625 C 129.945312 -106.242188 136.125 -89.539062 136.125 -67.78125 C 136.125 -56.894531 134.554688 -47.257812 131.421875 -38.875 C 128.285156 -30.488281 123.675781 -23.414062 117.59375 -17.65625 C 111.519531 -11.90625 104.097656 -7.523438 95.328125 -4.515625 C 86.554688 -1.503906 76.476562 0 65.09375 0 Z M 39.359375 -20.359375 L 63.546875 -20.359375 C 71.484375 -20.359375 78.363281 -21.347656 84.1875 -23.328125 C 90.007812 -25.304688 94.875 -28.25 98.78125 -32.15625 C 102.6875 -36.0625 105.597656 -40.988281 107.515625 -46.9375 C 109.441406 -52.894531 110.40625 -59.84375 110.40625 -67.78125 C 110.40625 -83.644531 106.5 -95.484375 98.6875 -103.296875 C 90.875 -111.109375 79.160156 -115.015625 63.546875 -115.015625 L 39.359375 -115.015625 Z M 39.359375 -20.359375 "/></g></g></g><g fill="#ffffff" fill-opacity="1"><g transform="translate(1070.441679, 248.994125)"><g><path d="M 27.078125 1.53125 C 23.109375 1.53125 20.066406 0.410156 17.953125 -1.828125 C 15.835938 -4.066406 14.78125 -7.171875 14.78125 -11.140625 L 14.78125 -124.21875 C 14.78125 -128.320312 15.835938 -131.457031 17.953125 -133.625 C 20.066406 -135.800781 23.109375 -136.890625 27.078125 -136.890625 C 31.046875 -136.890625 34.082031 -135.800781 36.1875 -133.625 C 38.300781 -131.457031 39.359375 -128.320312 39.359375 -124.21875 L 39.359375 -11.140625 C 39.359375 -7.171875 38.332031 -4.066406 36.28125 -1.828125 C 34.238281 0.410156 31.171875 1.53125 27.078125 1.53125 Z M 27.078125 1.53125 "/></g></g></g><g fill="#ffffff" fill-opacity="1"><g transform="translate(1161.641562, 248.994125)"><g><path d="M 27.453125 1.53125 C 23.484375 1.53125 20.378906 0.410156 18.140625 -1.828125 C 15.898438 -4.066406 14.78125 -7.296875 14.78125 -11.515625 L 14.78125 -122.296875 C 14.78125 -126.523438 15.898438 -129.757812 18.140625 -132 C 20.378906 -134.238281 23.613281 -135.359375 27.84375 -135.359375 L 94.84375 -135.359375 C 98.175781 -135.359375 100.671875 -134.523438 102.328125 -132.859375 C 103.992188 -131.203125 104.828125 -128.835938 104.828125 -125.765625 C 104.828125 -122.554688 103.992188 -120.085938 102.328125 -118.359375 C 100.671875 -116.640625 98.175781 -115.78125 94.84375 -115.78125 L 39.359375 -115.78125 L 39.359375 -77.5625 L 90.8125 -77.5625 C 94.007812 -77.5625 96.472656 -76.726562 98.203125 -75.0625 C 99.929688 -73.40625 100.796875 -71.039062 100.796875 -67.96875 C 100.796875 -64.769531 99.929688 -62.304688 98.203125 -60.578125 C 96.472656 -58.847656 94.007812 -57.984375 90.8125 -57.984375 L 39.359375 -57.984375 L 39.359375 -11.515625 C 39.359375 -2.816406 35.390625 1.53125 27.453125 1.53125 Z M 27.453125 1.53125 "/></g></g></g><g fill="#ffffff" fill-opacity="1"><g transform="translate(1306.60139, 248.994125)"><g><path d="M 59.328125 1.53125 C 55.359375 1.53125 52.316406 0.410156 50.203125 -1.828125 C 48.097656 -4.066406 47.046875 -7.234375 47.046875 -11.328125 L 47.046875 -69.703125 L 52.21875 -54.90625 L 5.953125 -120 C 4.285156 -122.300781 3.546875 -124.765625 3.734375 -127.390625 C 3.929688 -130.015625 4.988281 -132.253906 6.90625 -134.109375 C 8.832031 -135.960938 11.519531 -136.890625 14.96875 -136.890625 C 17.53125 -136.890625 19.867188 -136.25 21.984375 -134.96875 C 24.097656 -133.695312 26.113281 -131.71875 28.03125 -129.03125 L 62.40625 -80.25 L 57.03125 -80.25 L 91.578125 -129.03125 C 93.628906 -131.84375 95.613281 -133.851562 97.53125 -135.0625 C 99.457031 -136.28125 101.828125 -136.890625 104.640625 -136.890625 C 107.960938 -136.890625 110.550781 -136.023438 112.40625 -134.296875 C 114.269531 -132.578125 115.234375 -130.4375 115.296875 -127.875 C 115.359375 -125.3125 114.429688 -122.625 112.515625 -119.8125 L 66.625 -54.90625 L 71.609375 -69.703125 L 71.609375 -11.328125 C 71.609375 -2.753906 67.515625 1.53125 59.328125 1.53125 Z M 59.328125 1.53125 "/></g></g></g></svg>